<mxfile host="app.diagrams.net" modified="2024-07-21T21:56:33.579Z" agent="Mozilla/5.0 (Windows NT 10.0; Win64; x64; rv:129.0) Gecko/20100101 Firefox/129.0" etag="4aNkt9Ey73yg_7TVh1P0" version="24.7.1" type="device">
  <diagram id="N1qh7ePzJX4xE1G6DfqP" name="Pagina-1">
    <mxGraphModel dx="1793" dy="883" grid="1" gridSize="10" guides="1" tooltips="1" connect="1" arrows="1" fold="1" page="1" pageScale="1" pageWidth="827" pageHeight="1169" math="0" shadow="0">
      <root>
        <mxCell id="0" />
        <mxCell id="1" parent="0" />
        <mxCell id="2" value="ARTIST" style="text;strokeColor=none;fillColor=none;rounded=0;whiteSpace=wrap;html=1;" parent="1" vertex="1">
          <mxGeometry x="50" y="50" width="100" height="30" as="geometry" />
        </mxCell>
        <mxCell id="3" value="id" style="rounded=0;whiteSpace=wrap;html=1;strokeColor=none;fillColor=#e1d5e7;" parent="1" vertex="1">
          <mxGeometry x="51" y="80" width="40" height="30" as="geometry" />
        </mxCell>
        <mxCell id="4" value="name" style="rounded=0;whiteSpace=wrap;html=1;" parent="1" vertex="1">
          <mxGeometry x="92" y="80" width="50" height="30" as="geometry" />
        </mxCell>
        <mxCell id="5" value="gender" style="rounded=0;whiteSpace=wrap;html=1;" parent="1" vertex="1">
          <mxGeometry x="142" y="80" width="60" height="30" as="geometry" />
        </mxCell>
        <mxCell id="6" value="year_of_birth" style="rounded=0;whiteSpace=wrap;html=1;" parent="1" vertex="1">
          <mxGeometry x="202" y="80" width="100" height="30" as="geometry" />
        </mxCell>
        <mxCell id="7" value="year_of_death" style="rounded=0;whiteSpace=wrap;html=1;" parent="1" vertex="1">
          <mxGeometry x="302" y="80" width="100" height="30" as="geometry" />
        </mxCell>
        <mxCell id="8" value="city_of_birth" style="rounded=0;whiteSpace=wrap;html=1;" parent="1" vertex="1">
          <mxGeometry x="402" y="80" width="100" height="30" as="geometry" />
        </mxCell>
        <mxCell id="9" value="state_of_birth" style="rounded=0;whiteSpace=wrap;html=1;" parent="1" vertex="1">
          <mxGeometry x="502" y="80" width="100" height="30" as="geometry" />
        </mxCell>
        <mxCell id="10" value="city_of_death" style="rounded=0;whiteSpace=wrap;html=1;" parent="1" vertex="1">
          <mxGeometry x="602" y="80" width="100" height="30" as="geometry" />
        </mxCell>
        <mxCell id="11" value="state_of_death" style="rounded=0;whiteSpace=wrap;html=1;" parent="1" vertex="1">
          <mxGeometry x="702" y="80" width="100" height="30" as="geometry" />
        </mxCell>
        <mxCell id="12" value="url" style="rounded=0;whiteSpace=wrap;html=1;" parent="1" vertex="1">
          <mxGeometry x="802" y="80" width="40" height="30" as="geometry" />
        </mxCell>
        <mxCell id="13" value="&lt;div&gt;ARTWORK&lt;/div&gt;&lt;div&gt;&lt;br&gt;&lt;/div&gt;" style="text;strokeColor=none;fillColor=none;rounded=0;whiteSpace=wrap;html=1;" parent="1" vertex="1">
          <mxGeometry x="50" y="150" width="100" height="30" as="geometry" />
        </mxCell>
        <mxCell id="14" value="id" style="rounded=0;whiteSpace=wrap;html=1;strokeColor=none;fillColor=#dae8fc;" parent="1" vertex="1">
          <mxGeometry x="51" y="180" width="40" height="30" as="geometry" />
        </mxCell>
        <mxCell id="15" value="&lt;font style=&quot;font-size: 10px;&quot;&gt;accession_number&lt;/font&gt;" style="rounded=0;whiteSpace=wrap;html=1;" parent="1" vertex="1">
          <mxGeometry x="92" y="180" width="100" height="30" as="geometry" />
        </mxCell>
        <mxCell id="16" value="artist_role" style="rounded=0;whiteSpace=wrap;html=1;" parent="1" vertex="1">
          <mxGeometry x="192" y="180" width="70" height="30" as="geometry" />
        </mxCell>
        <mxCell id="17" value="artist_id" style="rounded=0;whiteSpace=wrap;html=1;fillColor=#fff2cc;" parent="1" vertex="1">
          <mxGeometry x="262" y="180" width="60" height="30" as="geometry" />
        </mxCell>
        <mxCell id="18" value="title" style="rounded=0;whiteSpace=wrap;html=1;" parent="1" vertex="1">
          <mxGeometry x="322" y="180" width="50" height="30" as="geometry" />
        </mxCell>
        <mxCell id="19" value="medium" style="rounded=0;whiteSpace=wrap;html=1;" parent="1" vertex="1">
          <mxGeometry x="372" y="180" width="60" height="30" as="geometry" />
        </mxCell>
        <mxCell id="20" value="credit_line" style="rounded=0;whiteSpace=wrap;html=1;" parent="1" vertex="1">
          <mxGeometry x="432" y="180" width="80" height="30" as="geometry" />
        </mxCell>
        <mxCell id="21" value="year" style="rounded=0;whiteSpace=wrap;html=1;" parent="1" vertex="1">
          <mxGeometry x="512" y="180" width="50" height="30" as="geometry" />
        </mxCell>
        <mxCell id="22" value="acquisition_year" style="rounded=0;whiteSpace=wrap;html=1;" parent="1" vertex="1">
          <mxGeometry x="562" y="180" width="100" height="30" as="geometry" />
        </mxCell>
        <mxCell id="23" value="width" style="rounded=0;whiteSpace=wrap;html=1;" parent="1" vertex="1">
          <mxGeometry x="662" y="180" width="40" height="30" as="geometry" />
        </mxCell>
        <mxCell id="24" value="height" style="rounded=0;whiteSpace=wrap;html=1;" parent="1" vertex="1">
          <mxGeometry x="702" y="180" width="50" height="30" as="geometry" />
        </mxCell>
        <mxCell id="25" value="depth" style="rounded=0;whiteSpace=wrap;html=1;" parent="1" vertex="1">
          <mxGeometry x="752" y="180" width="50" height="30" as="geometry" />
        </mxCell>
        <mxCell id="26" value="units" style="rounded=0;whiteSpace=wrap;html=1;" parent="1" vertex="1">
          <mxGeometry x="802" y="180" width="50" height="30" as="geometry" />
        </mxCell>
        <mxCell id="27" value="inscription" style="rounded=0;whiteSpace=wrap;html=1;" parent="1" vertex="1">
          <mxGeometry x="852" y="180" width="79" height="30" as="geometry" />
        </mxCell>
        <mxCell id="28" value="&lt;font style=&quot;font-size: 10px;&quot;&gt;thumbnail_copyright&lt;/font&gt;" style="rounded=0;whiteSpace=wrap;html=1;" parent="1" vertex="1">
          <mxGeometry x="931" y="180" width="109" height="30" as="geometry" />
        </mxCell>
        <mxCell id="29" parent="1" source="17" target="3" edge="1">
          <mxGeometry relative="1" as="geometry">
            <mxPoint x="80" y="120" as="targetPoint" />
          </mxGeometry>
        </mxCell>
        <mxCell id="l0Vgv_7KXPVeWwuFxltY-31" value="thumbnail_url" style="rounded=0;whiteSpace=wrap;html=1;" vertex="1" parent="1">
          <mxGeometry x="1040" y="180" width="100" height="30" as="geometry" />
        </mxCell>
        <mxCell id="l0Vgv_7KXPVeWwuFxltY-32" value="url" style="rounded=0;whiteSpace=wrap;html=1;" vertex="1" parent="1">
          <mxGeometry x="1140" y="180" width="100" height="30" as="geometry" />
        </mxCell>
      </root>
    </mxGraphModel>
  </diagram>
</mxfile>
